<?xml version="1.0" standalone="no"?>
<!DOCTYPE svg PUBLIC "-//W3C//DTD SVG 20010904//EN"
 "http://www.w3.org/TR/2001/REC-SVG-20010904/DTD/svg10.dtd">
<svg version="1.0" xmlns="http://www.w3.org/2000/svg"
 width="352.000000pt" height="352.000000pt" viewBox="0 0 352.000000 352.000000"
 preserveAspectRatio="xMidYMid meet">
<metadata>
Created by potrace 1.11, written by Peter Selinger 2001-2013
</metadata>
<g transform="translate(0.000000,352.000000) scale(0.100000,-0.100000)"
fill="#000000" stroke="none">
<path d="M1584 3509 c-212 -19 -404 -74 -619 -178 -391 -190 -677 -455 -839
-778 -125 -249 -169 -552 -84 -579 13 -4 44 11 97 45 97 64 196 113 286 141
98 31 276 39 365 16 85 -21 177 -67 241 -119 65 -53 112 -87 119 -87 3 0 49
29 102 64 54 35 132 78 175 94 75 29 210 62 252 62 21 0 21 -4 23 -933 l3
-933 37 -75 c83 -167 244 -259 432 -246 153 10 295 109 362 251 60 127 55 246
-11 246 -32 0 -53 -23 -60 -68 -33 -198 -150 -311 -325 -312 -62 0 -85 5 -136
29 -76 36 -129 88 -163 160 l-26 56 -3 913 -3 912 21 0 c43 0 178 -33 250 -61
42 -16 120 -58 174 -94 55 -36 103 -65 107 -65 4 0 40 27 81 60 133 110 265
160 423 160 159 0 322 -55 504 -170 73 -45 103 -50 125 -18 30 42 10 231 -39
383 -100 306 -381 638 -715 846 -245 152 -561 254 -869 279 -130 11 -157 11
-287 -1z m-36 -156 c-127 -132 -266 -368 -336 -574 -59 -171 -111 -434 -112
-561 0 -27 -4 -48 -10 -48 -5 0 -31 14 -57 30 -61 39 -181 85 -257 99 -170 31
-365 -4 -569 -102 l-87 -43 6 36 c26 154 110 347 214 490 84 114 274 300 388
380 215 151 462 256 732 311 128 26 130 26 88 -18z m504 17 c673 -130 1235
-631 1332 -1187 l5 -32 -102 49 c-56 27 -142 62 -192 77 -79 23 -107 27 -230
27 -125 0 -148 -3 -220 -27 -44 -14 -115 -46 -157 -71 l-78 -44 0 41 c0 23 -9
104 -20 180 -57 385 -185 682 -408 945 -29 34 -48 62 -43 62 6 0 56 -9 113
-20z m-206 -66 c236 -236 444 -730 444 -1054 l0 -89 -82 39 c-318 148 -616
146 -921 -6 -82 -42 -83 -40 -74 87 9 122 31 221 83 378 96 289 278 591 417
692 47 34 54 32 133 -47z"/>
</g>
</svg>
